<svg width="29" height="29" viewBox="0 0 29 29" fill="none" xmlns="http://www.w3.org/2000/svg">
<g id="ic_circle question mark">
<path id="Oval (Stroke)" fill-rule="evenodd" clip-rule="evenodd" d="M14.2091 24.7C20.0081 24.7 24.7091 19.999 24.7091 14.2C24.7091 8.40097 20.0081 3.69996 14.2091 3.69996C8.4101 3.69996 3.70909 8.40097 3.70909 14.2C3.70909 19.999 8.4101 24.7 14.2091 24.7ZM14.2091 25.8666C20.6524 25.8666 25.8758 20.6433 25.8758 14.2C25.8758 7.75664 20.6524 2.53329 14.2091 2.53329C7.76576 2.53329 2.54242 7.75664 2.54242 14.2C2.54242 20.6433 7.76576 25.8666 14.2091 25.8666Z" fill="#999999"/>
<path id="?" d="M13.1078 16.2794C13.1155 14.3782 13.627 13.7979 14.5433 13.2252C15.1999 12.7976 15.7115 12.3242 15.7039 11.6218C15.7115 10.8582 15.116 10.3619 14.3753 10.3543C13.6652 10.3619 13.0009 10.8353 12.9704 11.7287H10.8019C10.8401 9.58312 12.4359 8.55234 14.3906 8.55234C16.5209 8.55234 18.025 9.65947 18.025 11.5454C18.025 12.8053 17.376 13.5993 16.3758 14.2025C15.513 14.7141 15.1312 15.2104 15.1236 16.2794V16.4474H13.1078V16.2794ZM12.8788 18.6158C12.8635 17.9134 13.4438 17.3407 14.1615 17.3483C14.8411 17.3407 15.429 17.9134 15.429 18.6158C15.429 19.3259 14.8411 19.8986 14.1615 19.8986C13.4438 19.8986 12.8635 19.3259 12.8788 18.6158Z" fill="#999999"/>
</g>
</svg>
