<svg width="90" height="37" viewBox="0 0 90 37" fill="none" xmlns="http://www.w3.org/2000/svg">
<g id="W&#237;&#138;&#184;&#235;&#166;&#189;">
<g id="Vector">
<path d="M89.2061 19.053C89.2061 19.5546 88.7995 19.9613 88.2979 19.9613H84.5221C84.0205 19.9613 83.6138 19.5546 83.6138 19.053V5.75664C83.6138 5.49516 83.8102 4.84954 84.5489 4.84954L88.3521 4.86523C88.8318 4.89396 89.2061 5.29135 89.2061 5.77189V19.053Z" fill="url(#paint0_linear_2087_7714)"/>
<path d="M71.5836 19.1026H67.5893C67.0877 19.1026 66.681 18.6959 66.681 18.1943V12.224C66.681 11.7224 67.0877 11.3157 67.5893 11.3157H74.2169C74.4677 11.3157 74.671 11.1124 74.671 10.8616V8.5101C74.671 8.25929 74.4677 8.05596 74.2169 8.05596H67.5893C67.0877 8.05596 66.681 7.64931 66.681 7.14767V6.71618C66.681 6.21456 67.0877 5.80789 67.5893 5.80789H79.4756C79.9772 5.80789 80.3838 6.21456 80.3838 6.71618V12.6555C80.3838 13.1571 79.9772 13.5638 79.4756 13.5638H72.848C72.5972 13.5638 72.3939 13.7671 72.3939 14.0179V16.4326C72.3939 16.6834 72.5973 16.887 72.8481 16.8839C75.8607 16.8461 78.0536 16.4362 80.6224 15.86C81.0978 15.7534 81.4732 16.0412 81.6081 16.5094L81.7583 16.9057C81.901 17.4008 81.6041 17.9161 81.1017 18.0302C78.3338 18.6591 75.2384 19.1026 71.5836 19.1026Z" fill="url(#paint1_linear_2087_7714)"/>
<path fill-rule="evenodd" clip-rule="evenodd" d="M89.1385 31.0564C89.1385 31.558 88.7318 31.9647 88.2302 31.9647H68.772C68.2704 31.9647 67.8638 31.558 67.8638 31.0564V22.7964C67.8638 22.2734 68.3043 21.8584 68.8263 21.8897L72.6232 21.8766C73.1029 21.9053 73.4772 22.3027 73.4772 22.7832V23.9681C73.4772 24.2189 73.6805 24.4222 73.9314 24.4222H83.0709C83.3217 24.4222 83.525 24.2189 83.525 23.9681V22.4738C83.525 21.9508 83.9655 21.5359 84.4876 21.5672L88.2845 21.554C88.7642 21.5828 89.1385 21.9801 89.1385 22.4607V31.0564ZM73.9314 26.8315C73.6805 26.8315 73.4772 27.0349 73.4772 27.2857V29.1334C73.4772 29.3842 73.6805 29.5876 73.9314 29.5876H83.0709C83.3217 29.5876 83.525 29.3842 83.525 29.1334V27.2857C83.525 27.0349 83.3217 26.8315 83.0709 26.8315H73.9314Z" fill="url(#paint2_linear_2087_7714)"/>
<path d="M63.0089 21.4419C63.0089 21.9435 62.6022 22.3502 62.1006 22.3502H41.414C40.9124 22.3502 40.5057 21.9435 40.5057 21.4419V6.60432C40.5057 6.10268 40.9124 5.69604 41.414 5.69604H62.1006C62.6022 5.69604 63.0089 6.1027 63.0089 6.60432V7.16483C63.0089 7.66647 62.6022 8.07311 62.1006 8.07311H46.5746C46.3238 8.07311 46.1205 8.27644 46.1205 8.52726V12.332C46.1205 12.5829 46.3238 12.7862 46.5746 12.7862H61.1791C61.6807 12.7862 62.0873 13.1928 62.0873 13.6945V14.255C62.0873 14.7566 61.6807 15.1633 61.1791 15.1633H46.5746C46.3238 15.1633 46.1205 15.3666 46.1205 15.6174V19.5189C46.1205 19.7698 46.3238 19.9731 46.5746 19.9731H62.1006C62.6022 19.9731 63.0089 20.3797 63.0089 20.8814V21.4419Z" fill="url(#paint3_linear_2087_7714)"/>
<path d="M64.3574 29.7621C64.3574 30.2638 63.9508 30.6704 63.4492 30.6704H40.1799C39.6782 30.6704 39.2716 30.2638 39.2716 29.7621V29.2016C39.2716 28.7 39.6782 28.2933 40.1799 28.2933H63.4492C63.9508 28.2933 64.3574 28.7 64.3574 29.2016V29.7621Z" fill="url(#paint4_linear_2087_7714)"/>
<path d="M29.5506 0.447614C29.6363 0.283305 29.7996 0.200745 29.9633 0.199951C30.1269 0.200745 30.2902 0.283305 30.3759 0.447614C30.4888 0.664306 30.5957 0.885896 30.704 1.11047C31.4197 2.595 32.1982 4.20955 35.2213 5.3983C35.378 5.45992 35.4515 5.60591 35.4468 5.75326C35.4515 5.90064 35.378 6.04662 35.2213 6.10824C32.1982 7.29699 31.4197 8.91155 30.704 10.3961C30.5957 10.6207 30.4888 10.8422 30.3759 11.0589C30.2902 11.2232 30.1269 11.3058 29.9632 11.3066C29.7996 11.3058 29.6363 11.2232 29.5506 11.0589C29.4377 10.8422 29.3308 10.6207 29.2225 10.3961C28.5068 8.91155 27.7283 7.29699 24.7052 6.10824C24.5485 6.04662 24.475 5.90064 24.4797 5.75326C24.475 5.60591 24.5485 5.45992 24.7052 5.3983C27.7283 4.20955 28.5068 2.595 29.2225 1.11047C29.3308 0.885896 29.4377 0.664306 29.5506 0.447614Z" fill="url(#paint5_linear_2087_7714)"/>
<path d="M12.7095 20.2398L6.96358 6.14519C6.85866 5.88784 6.58846 5.71701 6.28633 5.71701H1.51385C1.00962 5.71701 0.660603 6.17446 0.837651 6.6033L10.1104 29.0632C10.1299 29.1104 10.155 29.1548 10.1848 29.1956L10.7659 30.5254C11.0777 31.2388 12.0963 31.2195 12.3809 30.4947L12.937 29.0782C12.9417 29.0675 12.9461 29.0567 12.9503 29.0458L13.8004 27.0286C13.8257 27.041 13.8761 26.9549 14.0058 26.6188L17.8651 17.3914L22.6839 29.0632C22.7 29.1022 22.72 29.1393 22.7432 29.174L23.3338 30.5254C23.6456 31.2388 24.6642 31.2195 24.9488 30.4947L25.4843 29.1307C25.4995 29.1035 25.5127 29.0752 25.5239 29.0458L27.3117 24.8035L25.2831 20.2398L19.5371 6.14519C19.4322 5.88784 19.162 5.71701 18.8599 5.71701H14.0874C13.5832 5.71701 13.2342 6.17446 13.4112 6.6033L16.443 13.9468L13.2827 21.5293L12.7095 20.2398Z" fill="url(#paint6_linear_2087_7714)"/>
</g>
</g>
<defs>
<linearGradient id="paint0_linear_2087_7714" x1="44.9986" y1="0.199951" x2="44.9986" y2="31.9647" gradientUnits="userSpaceOnUse">
<stop stop-color="#37D5C5"/>
<stop offset="1" stop-color="#08BCD5"/>
</linearGradient>
<linearGradient id="paint1_linear_2087_7714" x1="44.9986" y1="0.199951" x2="44.9986" y2="31.9647" gradientUnits="userSpaceOnUse">
<stop stop-color="#37D5C5"/>
<stop offset="1" stop-color="#08BCD5"/>
</linearGradient>
<linearGradient id="paint2_linear_2087_7714" x1="44.9986" y1="0.199951" x2="44.9986" y2="31.9647" gradientUnits="userSpaceOnUse">
<stop stop-color="#37D5C5"/>
<stop offset="1" stop-color="#08BCD5"/>
</linearGradient>
<linearGradient id="paint3_linear_2087_7714" x1="44.9986" y1="0.199951" x2="44.9986" y2="31.9647" gradientUnits="userSpaceOnUse">
<stop stop-color="#37D5C5"/>
<stop offset="1" stop-color="#08BCD5"/>
</linearGradient>
<linearGradient id="paint4_linear_2087_7714" x1="44.9986" y1="0.199951" x2="44.9986" y2="31.9647" gradientUnits="userSpaceOnUse">
<stop stop-color="#37D5C5"/>
<stop offset="1" stop-color="#08BCD5"/>
</linearGradient>
<linearGradient id="paint5_linear_2087_7714" x1="44.9986" y1="0.199951" x2="44.9986" y2="31.9647" gradientUnits="userSpaceOnUse">
<stop stop-color="#37D5C5"/>
<stop offset="1" stop-color="#08BCD5"/>
</linearGradient>
<linearGradient id="paint6_linear_2087_7714" x1="44.9986" y1="0.199951" x2="44.9986" y2="31.9647" gradientUnits="userSpaceOnUse">
<stop stop-color="#37D5C5"/>
<stop offset="1" stop-color="#08BCD5"/>
</linearGradient>
</defs>
</svg>
