<svg fill="none" height="20" viewBox="0 0 133 20" width="133" xmlns="http://www.w3.org/2000/svg"><g fill="#4154ff"><path d="m9.64996 9.27158-2.87994-5.58044c-.79252-1.47205-2.42055-2.18935-4.04858-1.78253-1.62803.40683-2.72144 1.80127-2.72144 3.47139v9.7638c0 .1231.0994011.2221.222981.2221h2.716069c.12358 0 .22298-.099.22298-.2221v-9.72366c0-.08297 0-.37738.33044-.46035.32776-.08297.48089.19271.5185.26497l5.35691 9.90564c.07791.1445.22835.2328.39223.2328h2.81279c.1236 0 .223-.099.223-.2221v-12.95413c0-.12312-.0994-.22215-.223-.22215h-2.69995c-.12358 0-.22299.09903-.22299.22215v7.08194z"/><path d="m21.3593 1.37695c-4.0333 0-7.3149 3.26931-7.3149 7.28744 0 4.01811 3.2816 7.28741 7.3149 7.28741 4.0332 0 7.3148-3.2693 7.3148-7.28741 0-4.01813-3.2816-7.28744-7.3148-7.28744zm0 11.47775c-2.3178 0-4.2061-1.8786-4.2061-4.19031 0-2.31173 1.8856-4.19034 4.2061-4.19034 2.3204 0 4.206 1.87861 4.206 4.19034 0 2.31171-1.8856 4.19031-4.206 4.19031z"/><path d="m34.815 12.1675c-.9268 0-1.6791-.7494-1.6791-1.6727v-8.30781c0-.12312-.0994-.22215-.223-.22215h-2.7724c-.1236 0-.223.09903-.223.22215v8.48441c0 2.5935 2.1089 4.6945 4.7121 4.6945h4.6692c.1236 0 .223-.099.223-.2221v-2.7541c0-.1231-.0994-.2222-.223-.2222z"/></g><g fill="#000"><path d="m132.771 4.46487h-2.993c-.069 0-.135.03289-.179.0877l-3.604 4.5355v-7.56374c0-.12606-.101-.22745-.228-.22745h-2.308c-.126 0-.228.10139-.228.22745v13.61197c0 .1261.102.2275.228.2275h2.308c.127 0 .228-.1014.228-.2275v-4.3957l3.604 4.5355c.044.0548.11.0877.179.0877h2.993c.195 0 .3-.2275.176-.3755l-4.289-5.07535 4.289-5.07537c.124-.14799.019-.37545-.176-.37545z"/><path d="m95.2639 4.29688c-1.2901 0-2.473.45765-3.411 1.21951v-.82488c0-.12607-.1018-.22747-.2283-.22747h-2.3079c-.1265 0-.2283.1014-.2283.22747v15.08089c0 .126.1018.2274.2283.2274h2.3079c.1265 0 .2283-.1014.2283-.2274v-5.4645c.938.7618 2.1209 1.2195 3.411 1.2195 3.0314 0 5.4901-2.513 5.4901-5.61528 0-3.10222-2.4587-5.61524-5.4901-5.61524zm-.2888 8.79972c-1.7248 0-3.1222-1.4251-3.1222-3.18173 0-1.75665 1.3974-3.18171 3.1222-3.18171 1.7247 0 3.1221 1.42506 3.1221 3.18171 0 1.75663-1.3974 3.18173-3.1221 3.18173z"/><path d="m84.2663 9.11251c0-1.2113.9848-2.19239 2.2006-2.19239h.8555c.1266 0 .2283-.1014.2283-.22746v-2.15128c0-.1288-.1072-.23568-.2365-.22746-1.1856.05755-2.2557.55906-3.0506 1.33462v-.95643c0-.12606-.1018-.22746-.2284-.22746h-2.3079c-.1265 0-.2283.1014-.2283.22746v10.44129c0 .126.1018.2274.2283.2274h2.3079c.1266 0 .2284-.1014.2284-.2274v-6.02089z"/><path d="m118.409 9.11251c0-1.2113.985-2.19239 2.201-2.19239h.855c.127 0 .228-.1014.228-.22746v-2.15128c0-.1288-.107-.23568-.236-.22746-1.186.05755-2.256.55906-3.051 1.33462v-.95643c0-.12606-.102-.22746-.228-.22746h-2.308c-.127 0-.228.1014-.228.22746v10.44129c0 .126.101.2274.228.2274h2.308c.126 0 .228-.1014.228-.2274v-6.02089z"/><path d="m57.1543 15.3608h2.3079c.1265 0 .2283-.1014.2283-.2275v-6.16607c0-1.4689-.4016-2.60894-1.2048-3.42287-.8033-.82488-1.8568-1.2387-3.1579-1.2387s-2.44.51247-3.2845 1.3401v-.95643c0-.12606-.1017-.22746-.2283-.22746h-2.3079c-.1265 0-.2283.1014-.2283.22746v10.44127c0 .126.1018.2274.2283.2274h2.3079c.1266 0 .2283-.1014.2283-.2274v-5.69749c0-1.29625.9821-2.42533 2.2777-2.51028 1.4221-.09044 2.6022 1.03042 2.6022 2.42532v5.78245c0 .126.1046.2274.2311.2274z"/><path d="m65.1536 6.7252h2.2199c.1265 0 .2283-.1014.2283-.22746v-1.80598c0-.12606-.1018-.22746-.2283-.22746h-2.2199v-2.59524c0-.12606-.1018-.22746-.2283-.22746h-2.3272c-.1265 0-.2283.1014-.2283.22746v2.59524h-1.0756c-.1265 0-.2283.1014-.2283.22746v1.80598c0 .12606.1018.22746.2283.22746h1.0756v4.5793c0 2.239 1.8238 4.056 4.0711 4.056h.9326c.1265 0 .2283-.1014.2283-.2275v-2.3075c0-.126-.1018-.2274-.2283-.2274h-.7703c-.8004 0-1.4496-.6468-1.4496-1.4443z"/><path d="m45.6148 3.22829c.8949 0 1.6202-.72268 1.6202-1.61415 0-.891463-.7253-1.61414-1.6202-1.61414-.8948 0-1.6202.722677-1.6202 1.61414 0 .89147.7254 1.61415 1.6202 1.61415z"/><path d="m46.7511 4.46387h-2.3079c-.1261 0-.2284.10184-.2284.22746v10.44127c0 .1256.1023.2274.2284.2274h2.3079c.1261 0 .2283-.1018.2283-.2274v-10.44127c0-.12562-.1022-.22746-.2283-.22746z"/><path d="m79.5955 10.6988c.121 0 .2255-.0904.2393-.2082.0247-.2165.0412-.433.0412-.65501 0-3.25296-2.5499-5.8893-5.6941-5.8893-3.1441 0-5.6941 2.63634-5.6941 5.8893 0 3.25291 2.55 5.88931 5.6941 5.88931 2.2942 0 4.2665-1.4059 5.166-3.4284.0715-.1589-.0413-.3398-.2173-.3398h-2.407c-.0742 0-.1458.0356-.1898.0959-.6024.7948-1.2873 1.3045-2.3519 1.3045-1.5899 0-2.6352-1.1318-3.0093-2.6555h8.4229zm-8.3679-1.93474c.4373-1.41957 1.4359-2.44999 2.9543-2.44999s2.517 1.03042 2.9544 2.44999z"/><path d="m113.331 15.1327v-10.44119c0-.12607-.102-.22747-.229-.22747h-2.308c-.126 0-.228.1014-.228.22747v.82488c-.938-.76186-2.121-1.21951-3.411-1.21951-3.031 0-5.49 2.51302-5.49 5.61524 0 3.10228 2.459 5.61528 5.49 5.61528 1.29 0 2.473-.4577 3.411-1.2195v.8248c0 .1261.102.2275.228.2275h2.308c.127 0 .229-.1014.229-.2275zm-5.887-2.0361c-1.725 0-3.122-1.4251-3.122-3.18173 0-1.75665 1.397-3.1817 3.122-3.1817s3.122 1.42505 3.122 3.1817c0 1.75663-1.397 3.18173-3.122 3.18173z"/></g></svg>