<svg fill="none" height="28" viewBox="0 0 64 28" width="64" xmlns="http://www.w3.org/2000/svg"><g fill="#4154ff"><path d="m6.45545 5.51581-1.92657-3.74711c-.53017-.988448-1.61926-1.470091-2.70834-1.196921-1.089091.273171-1.82054 1.209501-1.82054 2.330941v6.55609c0 .08267.0664954.14916.149165.14916h1.816945c.08267 0 .14916-.06649.14916-.14916v-6.52914c0-.05571 0-.2534.22106-.30911.21925-.05571.32169.12939.34685.17792l3.58356 6.65134c.05212.09705.15276.15636.26239.15636h1.88164c.08267 0 .14917-.0665.14917-.14917v-8.698326c0-.08267-.0665-.149163-.14917-.149163h-1.80616c-.08267 0-.14916.066493-.14916.149163v4.755326z"/><path d="m14.3926.0898438c-2.7677 0-5.01955 2.2518662-5.01955 5.0195162 0 2.76764 2.25185 5.01954 5.01955 5.01954 2.7676 0 5.0195-2.2519 5.0195-5.01954 0-2.76765-2.2519-5.0195162-5.0195-5.0195162zm0 7.9057762c-1.5905 0-2.8863-1.29397-2.8863-2.88626 0-1.5923 1.294-2.88627 2.8863-2.88627 1.5922 0 2.8862 1.29397 2.8862 2.88627 0 1.59229-1.294 2.88626-2.8862 2.88626z"/><path d="m23.493 7.46021c-.62 0-1.1232-.50321-1.1232-1.12324v-5.578432c0-.08267-.0665-.149163-.1492-.149163h-1.8546c-.0827 0-.1492.066493-.1492.149163v5.697052c0 1.74146 1.4108 3.15224 3.1522 3.15224h3.1235c.0827 0 .1492-.0665.1492-.14917v-1.84929c0-.08267-.0665-.14916-.1492-.14916z"/></g><g fill="#000"><path d="m63.8342 16.6972h-2.152c-.0495 0-.0969.0237-.1286.0633l-2.5911 3.2735v-5.4592c0-.091-.0732-.1642-.1642-.1642h-1.6595c-.091 0-.1642.0732-.1642.1642v9.8246c0 .091.0732.1642.1642.1642h1.6595c.091 0 .1642-.0732.1642-.1642v-3.1727l2.5911 3.2736c.0317.0395.0791.0633.1286.0633h2.152c.1404 0 .2156-.1642.1266-.271l-3.0837-3.6632 3.0837-3.6632c.089-.1068.0138-.271-.1266-.271z"/><path d="m36.8663 16.5762c-.9276 0-1.7782.3303-2.4527.8802v-.5954c0-.091-.0731-.1642-.1641-.1642h-1.6595c-.091 0-.1642.0732-.1642.1642v10.8848c0 .091.0732.1641.1642.1641h1.6595c.091 0 .1641-.0731.1641-.1641v-3.9441c.6745.5499 1.5251.8802 2.4527.8802 2.1797 0 3.948-1.8138 3.948-4.0529 0-2.239-1.7683-4.0528-3.948-4.0528zm-.2077 6.3512c-1.2401 0-2.245-1.0285-2.245-2.2964s1.0049-2.2964 2.245-2.2964c1.2402 0 2.245 1.0285 2.245 2.2964s-1.0048 2.2964-2.245 2.2964z"/><path d="m28.9566 20.0516c0-.8742.7081-1.5823 1.5824-1.5823h.6152c.0909 0 .1641-.0732.1641-.1642v-1.5527c0-.093-.0771-.1701-.1701-.1642-.8525.0415-1.6219.4035-2.1935.9633v-.6903c0-.091-.0732-.1642-.1642-.1642h-1.6595c-.091 0-.1642.0732-.1642.1642v7.536c0 .091.0732.1642.1642.1642h1.6595c.091 0 .1642-.0732.1642-.1642v-4.3456z"/><path d="m53.5074 20.0516c0-.8742.7081-1.5823 1.5824-1.5823h.6151c.091 0 .1642-.0732.1642-.1642v-1.5527c0-.093-.0771-.1701-.1701-.1642-.8525.0415-1.6219.4035-2.1936.9633v-.6903c0-.091-.0731-.1642-.1641-.1642h-1.6595c-.091 0-.1642.0732-.1642.1642v7.536c0 .091.0732.1642.1642.1642h1.6595c.091 0 .1641-.0732.1641-.1642v-4.3456z"/><path d="m9.46175 24.5617h1.65955c.091 0 .1641-.0732.1641-.1642v-4.4505c0-1.0601-.2887-1.883-.8663-2.4704-.57758-.5954-1.33514-.8941-2.27072-.8941s-1.75446.3699-2.36169.9672v-.6903c0-.091-.07319-.1641-.16417-.1641h-1.65952c-.09099 0-.16417.0731-.16417.1641v7.5361c0 .091.07318.1642.16417.1642h1.65952c.09098 0 .16417-.0732.16417-.1642v-4.1122c0-.9356.70613-1.7505 1.63776-1.8118 1.02261-.0653 1.87115.7437 1.87115 1.7505v4.1735c0 .091.07516.1642.16615.1642z"/><path d="m15.2147 18.3293h1.5962c.091 0 .1641-.0732.1641-.1642v-1.3035c0-.0909-.0731-.1641-.1641-.1641h-1.5962v-1.8732c0-.091-.0732-.1641-.1642-.1641h-1.6734c-.091 0-.1642.0731-.1642.1641v1.8732h-.7733c-.091 0-.1642.0732-.1642.1641v1.3035c0 .091.0732.1642.1642.1642h.7733v3.3052c0 1.616 1.3114 2.9274 2.9274 2.9274h.6706c.091 0 .1641-.0732.1641-.1642v-1.6654c0-.091-.0731-.1642-.1641-.1642h-.5539c-.5755 0-1.0423-.4668-1.0423-1.0424z"/><path d="m1.16502 15.8051c.64343 0 1.16503-.5216 1.16503-1.165s-.5216-1.165-1.16503-1.165c-.643421 0-1.16502.5216-1.16502 1.165s.521599 1.165 1.16502 1.165z"/><path d="m1.98189 16.6968h-1.659515c-.090669 0-.164172.0735-.164172.1641v7.5361c0 .0907.073503.1642.164172.1642h1.659515c.09067 0 .16417-.0735.16417-.1642v-7.5361c0-.0906-.0735-.1641-.16417-.1641z"/><path d="m25.5984 21.197c.087 0 .1622-.0653.172-.1504.0179-.1562.0297-.3125.0297-.4727 0-2.3479-1.8336-4.2507-4.0944-4.2507s-4.0944 1.9028-4.0944 4.2507 1.8336 4.2507 4.0944 4.2507c1.6496 0 3.0679-1.0147 3.7146-2.4745.0515-.1147-.0296-.2453-.1562-.2453h-1.7307c-.0534 0-.1049.0258-.1365.0693-.4332.5736-.9257.9415-1.6912.9415-1.1432 0-1.8949-.8169-2.1639-1.9167h6.0566zm-6.017-1.3965c.3145-1.0246 1.0325-1.7683 2.1243-1.7683 1.0919 0 1.8099.7437 2.1244 1.7683z"/><path d="m49.8573 24.3971v-7.5361c0-.091-.0732-.1642-.1642-.1642h-1.6595c-.091 0-.1641.0732-.1641.1642v.5954c-.6745-.5499-1.5251-.8802-2.4527-.8802-2.1797 0-3.948 1.8138-3.948 4.0528 0 2.2391 1.7683 4.0529 3.948 4.0529.9276 0 1.7782-.3303 2.4527-.8802v.5954c0 .091.0731.1641.1641.1641h1.6595c.091 0 .1642-.0731.1642-.1641zm-4.2328-1.4697c-1.2402 0-2.245-1.0285-2.245-2.2964s1.0048-2.2964 2.245-2.2964 2.245 1.0285 2.245 2.2964-1.0048 2.2964-2.245 2.2964z"/></g></svg>