<svg width="110" height="15" viewBox="0 0 110 15" fill="none" xmlns="http://www.w3.org/2000/svg">
<path fill-rule="evenodd" clip-rule="evenodd" d="M2.46532 1.73803C2.46532 2.36377 1.95703 2.87206 1.33129 2.87206C0.705557 2.87206 0.197266 2.36377 0.197266 1.73803C0.197266 1.1123 0.705557 0.604004 1.33129 0.604004C1.95703 0.604004 2.46532 1.1123 2.46532 1.73803ZM60.2373 3.73838H62.3321V3.73646C62.4688 3.73646 62.542 3.89626 62.4553 4.00023L59.4537 7.56597L62.4553 11.1317C62.542 11.2357 62.4688 11.3955 62.3321 11.3955H60.2373C60.1892 11.3955 60.143 11.3724 60.1122 11.3339L57.59 8.14742V11.2357C57.59 11.3242 57.5187 11.3955 57.4302 11.3955H55.8148C55.7262 11.3955 55.655 11.3242 55.655 11.2357V1.67249C55.655 1.58392 55.7262 1.51268 55.8148 1.51268H57.4302C57.5187 1.51268 57.59 1.58392 57.59 1.67249V6.98644L60.1122 3.79999C60.143 3.76149 60.1892 3.73838 60.2373 3.73838ZM77.2839 1.55358H78.8993C78.9879 1.55358 79.0591 1.62482 79.0591 1.71339V11.2766C79.0591 11.3651 78.9879 11.4364 78.8993 11.4364H77.2839C77.1954 11.4364 77.1241 11.3651 77.1241 11.2766V1.71339C77.1241 1.62482 77.1954 1.55358 77.2839 1.55358ZM80.1932 7.61344C80.1932 5.32806 82.0108 3.47587 84.2538 3.47587C86.4968 3.47587 88.3144 5.32806 88.3144 7.61344C88.3144 9.89883 86.4968 11.751 84.2538 11.751C82.0108 11.751 80.1932 9.89883 80.1932 7.61344ZM82.0897 7.61537C82.0897 8.83796 83.0582 9.82951 84.2538 9.82951C85.4494 9.82951 86.4179 8.83796 86.4179 7.61537C86.4179 6.39277 85.4494 5.40122 84.2538 5.40122C83.0582 5.40122 82.0897 6.39277 82.0897 7.61537ZM109.788 1.55358H108.172C108.084 1.55358 108.012 1.62482 108.012 1.71339V11.2766C108.012 11.3651 108.084 11.4364 108.172 11.4364H109.788C109.876 11.4364 109.947 11.3651 109.947 11.2766V1.71339C109.947 1.62482 109.876 1.55358 109.788 1.55358ZM93.7745 3.61563C95.896 3.61563 97.617 5.38065 97.6175 7.5597C97.617 9.73876 95.896 11.5038 93.7745 11.5038C92.8716 11.5038 92.0437 11.1822 91.3871 10.647V11.2342C91.3871 11.3228 91.3159 11.394 91.2273 11.394H89.6119C89.5234 11.394 89.4521 11.3228 89.4521 11.2342V1.71339C89.4521 1.62482 89.5234 1.55358 89.6119 1.55358H91.2273C91.3159 1.55358 91.3871 1.62482 91.3871 1.71339V4.47241C92.0437 3.93716 92.8716 3.61563 93.7745 3.61563ZM93.5743 9.79599C94.7815 9.79599 95.7596 8.79481 95.7596 7.56066C95.7596 6.32651 94.7815 5.32534 93.5743 5.32534C92.3671 5.32534 91.389 6.32651 91.389 7.56066C91.389 8.79481 92.3671 9.79599 93.5743 9.79599ZM106.403 3.8982C106.403 3.80964 106.332 3.7384 106.243 3.7384H104.628C104.539 3.7384 104.468 3.80964 104.468 3.8982V4.47773C103.811 3.94248 102.983 3.62095 102.08 3.62095C99.9588 3.62095 98.2375 5.38649 98.2375 7.56598C98.2375 9.74547 99.9588 11.511 102.08 11.511C102.983 11.511 103.811 11.1895 104.468 10.6542V11.2338C104.468 11.3223 104.539 11.3936 104.628 11.3936H106.243C106.332 11.3936 106.403 11.3223 106.403 11.2338V3.8982ZM102.283 9.80324C101.075 9.80324 100.097 8.80206 100.097 7.56791C100.097 6.33376 101.075 5.33258 102.283 5.33258C103.49 5.33258 104.468 6.33376 104.468 7.56791C104.468 8.80206 103.49 9.80324 102.283 9.80324ZM36.08 3.62288C35.177 3.62288 34.3491 3.94441 33.6925 4.47966V3.90013C33.6925 3.81156 33.6213 3.74033 33.5327 3.74033H31.9174C31.8288 3.74033 31.7576 3.81156 31.7576 3.90013V14.4953C31.7576 14.5839 31.8288 14.6551 31.9174 14.6551H33.5327C33.6213 14.6551 33.6925 14.5839 33.6925 14.4953V10.6562C34.3491 11.1914 35.177 11.5129 36.08 11.5129C38.2017 11.5129 39.9229 9.7474 39.9229 7.56791C39.9229 5.38842 38.2017 3.62288 36.08 3.62288ZM35.8778 9.80324C34.6706 9.80324 33.6925 8.80206 33.6925 7.56791C33.6925 6.33377 34.6706 5.33259 35.8778 5.33259C37.085 5.33259 38.0631 6.33377 38.0631 7.56791C38.0631 8.80206 37.085 9.80324 35.8778 9.80324ZM29.9227 5.46384C29.0717 5.46384 28.3824 6.15312 28.3824 7.00412H28.3805V11.2341C28.3805 11.3227 28.3092 11.3939 28.2207 11.3939H26.6053C26.5167 11.3939 26.4455 11.3227 26.4455 11.2341V3.89854C26.4455 3.80997 26.5167 3.73873 26.6053 3.73873H28.2207C28.3092 3.73873 28.3805 3.80997 28.3805 3.89854V4.57048C28.9369 4.02561 29.6859 3.67327 30.5157 3.63284C30.6062 3.62706 30.6813 3.70215 30.6813 3.79264V5.30404C30.6813 5.39261 30.61 5.46384 30.5215 5.46384H29.9227ZM52.2799 7.00412C52.2799 6.15312 52.9692 5.46384 53.8202 5.46384H54.419C54.5076 5.46384 54.5788 5.39261 54.5788 5.30404V3.79264C54.5788 3.70215 54.5037 3.62706 54.4132 3.63284C53.5834 3.67327 52.8344 4.02561 52.278 4.57048V3.89854C52.278 3.80997 52.2068 3.73873 52.1182 3.73873H50.5028C50.4143 3.73873 50.343 3.80997 50.343 3.89854V11.2341C50.343 11.3227 50.4143 11.3939 50.5028 11.3939H52.1182C52.2068 11.3939 52.278 11.3227 52.278 11.2341V7.00412H52.2799ZM11.0216 11.3959H9.40625V11.394C9.31768 11.394 9.24452 11.3227 9.24452 11.2342V7.17169C9.24452 6.19169 8.41855 5.40422 7.42314 5.46776C6.5163 5.52744 5.82895 6.32069 5.82895 7.23137V11.2342C5.82895 11.3227 5.75772 11.394 5.66915 11.394H4.05379C3.96522 11.394 3.89398 11.3227 3.89398 11.2342V3.8986C3.89398 3.81004 3.96522 3.7388 4.05379 3.7388H5.66915C5.75772 3.7388 5.82895 3.81004 5.82895 3.8986V4.57055C6.42004 3.98909 7.21713 3.62905 8.12782 3.62905C9.03851 3.62905 9.77591 3.91978 10.3381 4.49931C10.9003 5.07114 11.1814 5.87208 11.1814 6.90407V11.2361C11.1814 11.3247 11.1102 11.3959 11.0216 11.3959ZM15.005 5.32959H16.5588C16.6474 5.32959 16.7186 5.25836 16.7186 5.16979V3.90099C16.7186 3.81242 16.6474 3.74118 16.5588 3.74118H15.005V1.91596C15.005 1.82739 14.9338 1.75615 14.8452 1.75615H13.2164C13.1278 1.75615 13.0566 1.82739 13.0566 1.91596V3.73926H12.3038C12.2152 3.73926 12.144 3.8105 12.144 3.89906V5.16786C12.144 5.25643 12.2152 5.32767 12.3038 5.32767H13.0566V8.54492C13.0566 10.1179 14.3331 11.3944 15.9061 11.3944H16.5588C16.6474 11.3944 16.7186 11.3232 16.7186 11.2346V9.61349C16.7186 9.52492 16.6474 9.45368 16.5588 9.45368H16.0197C15.4594 9.45368 15.005 8.9993 15.005 8.43903V5.32959ZM2.12457 3.73864H0.5092C0.420634 3.73864 0.349396 3.80987 0.349396 3.89844V11.234C0.349396 11.3226 0.420634 11.3938 0.5092 11.3938H2.12457C2.21313 11.3938 2.28437 11.3226 2.28437 11.234V3.89844C2.28437 3.80987 2.21313 3.73864 2.12457 3.73864ZM25.2807 7.97443C25.2711 8.05722 25.1979 8.12076 25.1132 8.12076V8.12269H19.2178C19.4796 9.19318 20.2113 9.98835 21.3241 9.98835C22.0692 9.98835 22.5486 9.63023 22.9703 9.07188C23.0011 9.02952 23.0511 9.0045 23.1031 9.0045H24.7878C24.911 9.0045 24.99 9.13157 24.9399 9.24324C24.3103 10.6641 22.9298 11.6518 21.3241 11.6518C19.1234 11.6518 17.3386 9.79966 17.3386 7.51428C17.3386 5.22889 19.1234 3.37671 21.3241 3.37671C23.5248 3.37671 25.3096 5.22889 25.3096 7.51428C25.3096 7.67023 25.298 7.82233 25.2807 7.97443ZM21.3241 5.03828C20.2613 5.03828 19.5624 5.76221 19.2563 6.75954H23.3919C23.0858 5.76221 22.3869 5.03828 21.3241 5.03828ZM48.7275 11.2338V3.8982C48.7275 3.80964 48.6563 3.7384 48.5677 3.7384H46.9523C46.8638 3.7384 46.7925 3.80964 46.7925 3.8982V4.47773C46.136 3.94248 45.3081 3.62095 44.4051 3.62095C42.2834 3.62095 40.5621 5.38649 40.5621 7.56598C40.5621 9.74547 42.2834 11.511 44.4051 11.511C45.3081 11.511 46.136 11.1895 46.7925 10.6542V11.2338C46.7925 11.3223 46.8638 11.3936 46.9523 11.3936H48.5677C48.6563 11.3936 48.7275 11.3223 48.7275 11.2338ZM44.6073 9.80324C43.4001 9.80324 42.422 8.80206 42.422 7.56791C42.422 6.33376 43.4001 5.33258 44.6073 5.33258C45.8145 5.33258 46.7925 6.33376 46.7925 7.56791C46.7925 8.80206 45.8145 9.80324 44.6073 9.80324ZM72.4613 4.02451C72.8474 4.2359 73.1507 4.54379 73.3712 4.94818H75.5908C75.2875 3.99234 74.7361 3.25249 73.9365 2.72861C73.1369 2.19555 72.1948 1.92901 71.1103 1.92901C70.1912 1.92901 69.3549 2.1404 68.6012 2.56318C67.8568 2.97676 67.2686 3.56038 66.8366 4.31402C66.4138 5.05848 66.2024 5.90403 66.2024 6.85068C66.2024 7.79733 66.4138 8.64288 66.8366 9.38733C67.2686 10.1318 67.8568 10.7154 68.6012 11.1382C69.3549 11.5518 70.1958 11.7586 71.1241 11.7586C71.9513 11.7586 72.6957 11.5885 73.3575 11.2485C74.0284 10.8992 74.5752 10.4397 74.998 9.86985C75.4208 9.30002 75.6965 8.67964 75.8252 8.00872V6.3268H70.614V7.80192H73.9227C73.7756 8.50042 73.4677 9.04728 72.999 9.44248C72.5303 9.82849 71.9283 10.0215 71.193 10.0215C70.5956 10.0215 70.0718 9.89283 69.6214 9.63549C69.1711 9.37814 68.8172 9.01051 68.5599 8.53259C68.3117 8.05467 68.1876 7.49403 68.1876 6.85068C68.1876 6.22571 68.3117 5.67426 68.5599 5.19634C68.808 4.71842 69.1527 4.35078 69.5938 4.09344C70.035 3.8361 70.5405 3.70743 71.1103 3.70743C71.625 3.70743 72.0753 3.81312 72.4613 4.02451Z" fill="#949496"/>
<path fill-rule="evenodd" clip-rule="evenodd" d="M60.1121 3.79995C60.1429 3.76145 60.1892 3.73834 60.2373 3.73834H62.3321V3.73642C62.3409 3.73642 62.3494 3.73708 62.3576 3.73834C62.3669 3.73977 62.3758 3.74196 62.3844 3.74484C62.4858 3.7791 62.5301 3.91044 62.4553 4.00019L59.4537 7.56593L62.4553 11.1317C62.5419 11.2356 62.4688 11.3954 62.3321 11.3954H60.2373C60.1892 11.3954 60.1429 11.3723 60.1121 11.3338L57.5899 8.14738V11.2356C57.5899 11.3242 57.5187 11.3954 57.4301 11.3954H55.8148C55.7262 11.3954 55.655 11.3242 55.655 11.2356V1.67245C55.655 1.58388 55.7262 1.51264 55.8148 1.51264H57.4301C57.5187 1.51264 57.5899 1.58388 57.5899 1.67245V6.9864L60.1121 3.79995ZM57.6426 6.83494L60.0708 3.76725L60.071 3.76704C60.1113 3.71672 60.1723 3.68565 60.2373 3.68565H62.3179C62.3224 3.6844 62.3272 3.68372 62.3321 3.68372C62.5141 3.68372 62.6106 3.89613 62.4958 4.03392L62.4956 4.03412L59.5225 7.56593L62.4956 11.0977L62.4958 11.0979C62.6106 11.2357 62.5141 11.4481 62.3321 11.4481H60.2373C60.1723 11.4481 60.1113 11.4171 60.071 11.3667L60.0708 11.3665L57.6426 8.29885V11.2356C57.6426 11.3533 57.5478 11.4481 57.4301 11.4481H55.8148C55.6971 11.4481 55.6023 11.3533 55.6023 11.2356V1.67245C55.6023 1.55478 55.6971 1.45995 55.8148 1.45995H57.4301C57.5478 1.45995 57.6426 1.55478 57.6426 1.67245V6.83494ZM28.4351 7.00408C28.4351 7.00899 28.4344 7.01373 28.4331 7.01824V11.2341C28.4331 11.3517 28.3383 11.4466 28.2206 11.4466H26.6053C26.4876 11.4466 26.3928 11.3517 26.3928 11.2341V3.8985C26.3928 3.78083 26.4876 3.686 26.6053 3.686H28.2206C28.3383 3.686 28.4331 3.78083 28.4331 3.8985V4.44823C28.9879 3.94313 29.7133 3.61923 30.5127 3.58019C30.5128 3.58018 30.513 3.58018 30.5131 3.58017L30.5156 3.6328L30.5123 3.58021C30.5124 3.58021 30.5126 3.5802 30.5127 3.58019C30.6354 3.57261 30.7339 3.67387 30.7339 3.7926V5.304C30.7339 5.42167 30.6391 5.51649 30.5214 5.51649H29.9226C29.1007 5.51649 28.4351 6.18218 28.4351 7.00408ZM28.4331 4.51996C28.4154 4.5366 28.3978 4.55343 28.3804 4.57044V3.8985C28.3804 3.80993 28.3092 3.73869 28.2206 3.73869H26.6053C26.5167 3.73869 26.4455 3.80993 26.4455 3.8985V11.2341C26.4455 11.3226 26.5167 11.3939 26.6053 11.3939H28.2206C28.3092 11.3939 28.3804 11.3226 28.3804 11.2341V7.00408H28.3824M52.278 11.2341C52.278 11.3226 52.2067 11.3939 52.1182 11.3939H50.5028C50.4142 11.3939 50.343 11.3226 50.343 11.2341V3.8985C50.343 3.80993 50.4142 3.73869 50.5028 3.73869H52.1182C52.2067 3.73869 52.278 3.80993 52.278 3.8985V4.57044C52.2953 4.55343 52.3129 4.5366 52.3307 4.51996C52.8813 4.00387 53.6093 3.67197 54.4132 3.6328C54.5037 3.62702 54.5788 3.70211 54.5788 3.7926V5.304C54.5788 5.39257 54.5075 5.4638 54.419 5.4638H53.8202C52.9692 5.4638 52.2799 6.15308 52.2799 7.00408H52.278V11.2341ZM54.4102 3.58019C53.6108 3.61923 52.8854 3.94313 52.3307 4.44823V3.8985C52.3307 3.78083 52.2358 3.686 52.1182 3.686H50.5028C50.3851 3.686 50.2903 3.78083 50.2903 3.8985V11.2341C50.2903 11.3517 50.3851 11.4466 50.5028 11.4466H52.1182C52.2358 11.4466 52.3307 11.3517 52.3307 11.2341V7.01826C52.3319 7.01375 52.3326 7.00899 52.3326 7.00408C52.3326 6.18218 52.9983 5.51649 53.8202 5.51649H54.419C54.5366 5.51649 54.6315 5.42167 54.6315 5.304V3.7926C54.6315 3.67387 54.5329 3.5726 54.4102 3.58019ZM9.40621 11.4486C9.40056 11.4486 9.39513 11.4477 9.39003 11.446C9.28049 11.4378 9.19179 11.3471 9.19179 11.2341V7.17165C9.19179 6.22194 8.39138 5.45875 7.42652 5.5203C6.54967 5.57803 5.8816 6.34608 5.8816 7.23134V11.2341C5.8816 11.3518 5.78678 11.4466 5.66911 11.4466H4.05374C3.93608 11.4466 3.84125 11.3518 3.84125 11.2341V3.89856C3.84125 3.7809 3.93608 3.68607 4.05374 3.68607H5.66911C5.78678 3.68607 5.8816 3.7809 5.8816 3.89856V4.44786C6.47195 3.90736 7.24783 3.57632 8.12778 3.57632C9.0507 3.57632 9.8024 3.87146 10.3758 4.4625C10.9501 5.04676 11.2341 5.86244 11.2341 6.90403V11.2361C11.2341 11.3537 11.1392 11.4486 11.0216 11.4486H9.40621ZM10.3381 4.49927C9.77587 3.91974 9.03846 3.62901 8.12778 3.62901C7.24387 3.62901 6.46698 3.96818 5.8816 4.51978C5.86386 4.53649 5.8463 4.5534 5.82891 4.57051V3.89856C5.82891 3.81 5.75767 3.73876 5.66911 3.73876H4.05374C3.96518 3.73876 3.89394 3.81 3.89394 3.89856V11.2341C3.89394 11.3227 3.96518 11.3939 4.05374 11.3939H5.66911C5.75767 11.3939 5.82891 11.3227 5.82891 11.2341V7.23134C5.82891 6.32065 6.51626 5.5274 7.4231 5.46772C8.4185 5.40418 9.24448 6.19165 9.24448 7.17165V11.2341C9.24448 11.3227 9.31764 11.3939 9.40621 11.3939V11.3959H11.0216C11.1101 11.3959 11.1814 11.3246 11.1814 11.2361V6.90403C11.1814 5.87204 10.9003 5.0711 10.3381 4.49927ZM25.2806 7.9744C25.271 8.05719 25.1979 8.12072 25.1131 8.12072V8.12265H19.2177C19.222 8.14029 19.2265 8.15785 19.2311 8.17534C19.5038 9.21913 20.2295 9.98831 21.3241 9.98831C22.0692 9.98831 22.5486 9.63019 22.9702 9.07184C23.001 9.02949 23.0511 9.00446 23.1031 9.00446H24.7878C24.911 9.00446 24.9899 9.13153 24.9399 9.2432C24.3103 10.6641 22.9298 11.6518 21.3241 11.6518C19.1234 11.6518 17.3386 9.79963 17.3386 7.51424C17.3386 5.22885 19.1234 3.37667 21.3241 3.37667C23.5247 3.37667 25.3095 5.22885 25.3095 7.51424C25.3095 7.67019 25.298 7.82229 25.2806 7.9744ZM24.9879 9.26475C24.3506 10.703 22.9522 11.7045 21.3241 11.7045C19.0925 11.7045 17.2859 9.82685 17.2859 7.51424C17.2859 5.20162 19.0925 3.32398 21.3241 3.32398C23.5557 3.32398 25.3622 5.20162 25.3622 7.51424C25.3622 7.67278 25.3505 7.82698 25.333 7.98036C25.3208 8.08528 25.2329 8.16526 25.1293 8.17283C25.1242 8.17446 25.1188 8.17534 25.1131 8.17534H19.2855C19.5568 9.19667 20.2653 9.93562 21.3241 9.93562C22.0468 9.93562 22.5123 9.59067 22.9279 9.04044C22.9688 8.9845 23.0347 8.95177 23.1031 8.95177H24.7878C24.9506 8.95177 25.053 9.11957 24.9879 9.26475ZM73.3712 5.00084C73.3519 5.00084 73.3342 4.9903 73.3249 4.97338C73.109 4.5774 72.8127 4.277 72.436 4.07069C72.059 3.86422 71.6176 3.76008 71.1103 3.76008C70.5487 3.76008 70.0525 3.8868 69.6203 4.13892C69.1883 4.39096 68.8504 4.751 68.6066 5.22058C68.3629 5.68988 68.2403 6.23276 68.2403 6.85064C68.2403 7.48701 68.363 8.0389 68.6064 8.50791C68.8593 8.97741 69.2062 9.33754 69.6475 9.5897C70.0888 9.84184 70.6033 9.96877 71.193 9.96877C71.9185 9.96877 72.5078 9.77855 72.9651 9.40205C73.4092 9.02759 73.7072 8.51296 73.8572 7.85458H70.614C70.5849 7.85458 70.5613 7.83099 70.5613 7.80189V6.32676C70.5613 6.29766 70.5849 6.27407 70.614 6.27407H75.8251C75.8542 6.27407 75.8778 6.29766 75.8778 6.32676V8.00868C75.8778 8.01201 75.8775 8.01533 75.8769 8.0186C75.7467 8.69761 75.4676 9.32528 75.0403 9.90121C74.6124 10.4779 74.0593 10.9425 73.3817 11.2952L73.3815 11.2953C72.7115 11.6396 71.9587 11.8112 71.1241 11.8112C70.1876 11.8112 69.3379 11.6025 68.5758 11.1843L68.5752 11.184C67.8225 10.7565 67.2276 10.1662 66.791 9.41374L66.7907 9.41332C66.363 8.66011 66.1497 7.80542 66.1497 6.85064C66.1497 5.89585 66.363 5.04116 66.7907 4.28796L66.7908 4.28778C67.2274 3.52604 67.8225 2.93552 68.5754 2.51718C69.3374 2.08971 70.1828 1.87628 71.1103 1.87628C72.2038 1.87628 73.1563 2.14515 73.9656 2.68468C74.7757 3.21554 75.3343 3.96554 75.641 4.93221C75.6461 4.94822 75.6432 4.9657 75.6333 4.97926C75.6234 4.99282 75.6076 5.00084 75.5908 5.00084H73.3712ZM73.9364 2.72857C73.1368 2.1955 72.1948 1.92897 71.1103 1.92897C70.1912 1.92897 69.3548 2.14036 68.6012 2.56314C67.8567 2.97672 67.2685 3.56034 66.8365 4.31398C66.4138 5.05843 66.2024 5.90399 66.2024 6.85064C66.2024 7.79729 66.4138 8.64284 66.8365 9.3873C67.2685 10.1318 67.8567 10.7154 68.6012 11.1381C69.3548 11.5517 70.1958 11.7585 71.1241 11.7585C71.9512 11.7585 72.6957 11.5885 73.3574 11.2484C74.0283 10.8992 74.5752 10.4396 74.998 9.86981C75.4208 9.29998 75.6965 8.67961 75.8251 8.00868V6.32676H70.614V7.80189H73.9227C73.9189 7.81955 73.9151 7.83711 73.9112 7.85458C73.7599 8.52794 73.4558 9.05723 72.999 9.44244C72.5302 9.82845 71.9283 10.0215 71.193 10.0215C70.5956 10.0215 70.0717 9.89279 69.6214 9.63545C69.171 9.37811 68.8172 9.01048 68.5598 8.53255C68.3117 8.05463 68.1876 7.49399 68.1876 6.85064C68.1876 6.22567 68.3117 5.67422 68.5598 5.1963C68.808 4.71838 69.1526 4.35074 69.5938 4.0934C70.035 3.83606 70.5404 3.70739 71.1103 3.70739C71.625 3.70739 72.0753 3.81308 72.4613 4.02447C72.8473 4.23586 73.1506 4.54375 73.3712 4.94814H75.5908C75.5852 4.93051 75.5795 4.91294 75.5737 4.89545C75.267 3.96507 74.7213 3.24278 73.9364 2.72857ZM2.51797 1.73799C2.51797 2.39283 1.98609 2.92471 1.33125 2.92471C0.676414 2.92471 0.144531 2.39283 0.144531 1.73799C0.144531 1.08315 0.676414 0.55127 1.33125 0.55127C1.98609 0.55127 2.51797 1.08315 2.51797 1.73799ZM77.2839 1.50085H78.8993C79.0169 1.50085 79.1117 1.59568 79.1117 1.71335V11.2765C79.1117 11.3942 79.0169 11.489 78.8993 11.489H77.2839C77.1662 11.489 77.0714 11.3942 77.0714 11.2765V1.71335C77.0714 1.59568 77.1662 1.50085 77.2839 1.50085ZM80.1405 7.6134C80.1405 5.29985 81.9807 3.42314 84.2538 3.42314C86.5268 3.42314 88.367 5.29985 88.367 7.6134C88.367 9.92695 86.5268 11.8037 84.2538 11.8037C81.9807 11.8037 80.1405 9.92695 80.1405 7.6134ZM82.1424 7.61533C82.1424 8.80997 83.0884 9.77678 84.2538 9.77678C85.4192 9.77678 86.3652 8.80997 86.3652 7.61533C86.3652 6.42068 85.4192 5.45387 84.2538 5.45387C83.0884 5.45387 82.1424 6.42068 82.1424 7.61533ZM108.172 1.50085H109.788C109.905 1.50085 110 1.59567 110 1.71335V11.2765C110 11.3942 109.905 11.489 109.788 11.489H108.172C108.055 11.489 107.96 11.3942 107.96 11.2765V1.71335C107.96 1.59568 108.055 1.50085 108.172 1.50085ZM93.7745 3.5629C95.9263 3.5629 97.6697 5.3528 97.6702 7.55967C97.6697 9.76653 95.9263 11.5564 93.7745 11.5564C92.8977 11.5564 92.0909 11.2575 91.4398 10.7559V11.2342C91.4398 11.3518 91.3449 11.4467 91.2273 11.4467H89.6119C89.4942 11.4467 89.3994 11.3519 89.3994 11.2342V1.71335C89.3994 1.59568 89.4942 1.50085 89.6119 1.50085H91.2273C91.3449 1.50085 91.4398 1.59568 91.4398 1.71335V4.36338C92.0909 3.86186 92.8977 3.5629 93.7745 3.5629ZM91.4398 4.43016C92.0877 3.92026 92.8955 3.61559 93.7745 3.61559C95.8959 3.61559 97.617 5.38061 97.6175 7.55966C97.617 9.73872 95.8959 11.5037 93.7745 11.5037C92.8955 11.5037 92.0877 11.1991 91.4398 10.6892C91.4221 10.6752 91.4045 10.6612 91.3871 10.647V11.2342C91.3871 11.3227 91.3158 11.394 91.2273 11.394H89.6119C89.5233 11.394 89.4521 11.3227 89.4521 11.2342V1.71335C89.4521 1.62478 89.5233 1.55354 89.6119 1.55354H91.2273C91.3158 1.55354 91.3871 1.62478 91.3871 1.71335V4.47237C91.4045 4.45815 91.4221 4.44408 91.4398 4.43016ZM93.5743 9.74326C94.7512 9.74326 95.7068 8.76681 95.7068 7.56062C95.7068 6.35443 94.7512 5.37799 93.5743 5.37799C92.3973 5.37799 91.4417 6.35443 91.4417 7.56062C91.4417 8.76681 92.3973 9.74326 93.5743 9.74326ZM106.243 3.68567C106.361 3.68567 106.456 3.78049 106.456 3.89816V11.2337C106.456 11.3514 106.361 11.4462 106.243 11.4462H104.628C104.51 11.4462 104.415 11.3514 104.415 11.2337V10.7632C103.764 11.2647 102.957 11.5637 102.08 11.5637C99.9283 11.5637 98.1848 9.77324 98.1848 7.56595C98.1848 5.35865 99.9283 3.56822 102.08 3.56822C102.957 3.56822 103.764 3.86718 104.415 4.3687V3.89816C104.415 3.78049 104.51 3.68567 104.628 3.68567H106.243ZM104.415 4.43548C104.433 4.4494 104.45 4.46347 104.468 4.47769V3.89816C104.468 3.80959 104.539 3.73836 104.628 3.73836H106.243C106.332 3.73836 106.403 3.80959 106.403 3.89816V11.2337C106.403 11.3223 106.332 11.3935 106.243 11.3935H104.628C104.539 11.3935 104.468 11.3223 104.468 11.2337V10.6542C104.45 10.6684 104.433 10.6825 104.415 10.6964C103.767 11.2063 102.959 11.511 102.08 11.511C99.9587 11.511 98.2375 9.74544 98.2375 7.56595C98.2375 5.38645 99.9587 3.62091 102.08 3.62091C102.959 3.62091 103.767 3.92559 104.415 4.43548ZM100.15 7.56787C100.15 8.77406 101.106 9.75051 102.283 9.75051C103.46 9.75051 104.415 8.77406 104.415 7.56787C104.415 6.36168 103.46 5.38524 102.283 5.38524C101.106 5.38524 100.15 6.36168 100.15 7.56787ZM33.7452 4.37063C34.3963 3.86911 35.2031 3.57015 36.0799 3.57015C38.232 3.57015 39.9756 5.36058 39.9756 7.56787C39.9756 9.77517 38.232 11.5656 36.0799 11.5656C35.2031 11.5656 34.3963 11.2666 33.7452 10.7651V14.4953C33.7452 14.6129 33.6504 14.7078 33.5327 14.7078H31.9173C31.7997 14.7078 31.7048 14.6129 31.7048 14.4953V3.90009C31.7048 3.78242 31.7997 3.68759 31.9173 3.68759H33.5327C33.6504 3.68759 33.7452 3.78242 33.7452 3.90009V4.37063ZM33.7452 4.43741C34.3931 3.92751 35.2009 3.62284 36.0799 3.62284C38.2016 3.62284 39.9229 5.38838 39.9229 7.56787C39.9229 9.74736 38.2016 11.5129 36.0799 11.5129C35.2009 11.5129 34.3931 11.2082 33.7452 10.6983C33.7275 10.6844 33.7099 10.6703 33.6925 10.6561V14.4953C33.6925 14.5838 33.6213 14.6551 33.5327 14.6551H31.9173C31.8288 14.6551 31.7575 14.5838 31.7575 14.4953V3.90009C31.7575 3.81152 31.8288 3.74029 31.9173 3.74029H33.5327C33.6213 3.74029 33.6925 3.81152 33.6925 3.90009V4.47962C33.7099 4.4654 33.7275 4.45133 33.7452 4.43741ZM33.7452 7.56787C33.7452 8.77406 34.7008 9.75051 35.8778 9.75051C37.0547 9.75051 38.0103 8.77406 38.0103 7.56787C38.0103 6.36169 37.0547 5.38524 35.8778 5.38524C34.7008 5.38524 33.7452 6.36169 33.7452 7.56787ZM15.005 5.32955H16.5588C16.6473 5.32955 16.7186 5.25832 16.7186 5.16975V3.90095C16.7186 3.81238 16.6473 3.74114 16.5588 3.74114H15.005V1.91591C15.005 1.82735 14.9338 1.75611 14.8452 1.75611H13.2164C13.1278 1.75611 13.0565 1.82735 13.0565 1.91591V3.73922H12.3037C12.2152 3.73922 12.1439 3.81046 12.1439 3.89902V5.16782C12.1439 5.25639 12.2152 5.32763 12.3037 5.32763H13.0565V8.54488C13.0565 10.1179 14.3331 11.3944 15.9061 11.3944H16.5588C16.6473 11.3944 16.7186 11.3232 16.7186 11.2346V9.61345C16.7186 9.52488 16.6473 9.45364 16.5588 9.45364H16.0197C15.4594 9.45364 15.005 8.99926 15.005 8.43899V5.32955ZM13.0039 5.38032V8.54488C13.0039 10.147 14.304 11.4471 15.9061 11.4471H16.5588C16.6764 11.4471 16.7712 11.3523 16.7712 11.2346V9.61345C16.7712 9.49578 16.6764 9.40095 16.5588 9.40095H16.0197C15.4885 9.40095 15.0577 8.97016 15.0577 8.43899V5.38225H16.5588C16.6764 5.38225 16.7712 5.28742 16.7712 5.16975V3.90095C16.7712 3.78328 16.6764 3.68845 16.5588 3.68845H15.0577V1.91591C15.0577 1.79825 14.9629 1.70342 14.8452 1.70342H13.2164C13.0987 1.70342 13.0039 1.79825 13.0039 1.91591V3.68653H12.3037C12.1861 3.68653 12.0912 3.78135 12.0912 3.89902V5.16782C12.0912 5.28549 12.1861 5.38032 12.3037 5.38032H13.0039ZM0.509157 3.6859H2.12452C2.24219 3.6859 2.33702 3.78073 2.33702 3.8984V11.234C2.33702 11.3516 2.24219 11.4465 2.12452 11.4465H0.509157C0.39149 11.4465 0.296662 11.3516 0.296662 11.234V3.8984C0.296662 3.78073 0.39149 3.6859 0.509157 3.6859ZM19.2562 6.7595H23.3919C23.3865 6.74185 23.3809 6.72429 23.3753 6.70681C23.0609 5.73678 22.368 5.03824 21.3241 5.03824C20.2801 5.03824 19.5872 5.73678 19.2729 6.70681C19.2672 6.72429 19.2617 6.74185 19.2562 6.7595ZM19.3283 6.70681H23.3198C23.0078 5.7598 22.3325 5.09094 21.3241 5.09094C20.3156 5.09094 19.6403 5.7598 19.3283 6.70681ZM48.7802 3.89816V11.2337C48.7802 11.3514 48.6853 11.4462 48.5677 11.4462H46.9523C46.8346 11.4462 46.7398 11.3514 46.7398 11.2337V10.7632C46.0887 11.2647 45.2818 11.5637 44.4051 11.5637C42.2529 11.5637 40.5094 9.77324 40.5094 7.56595C40.5094 5.35865 42.2529 3.56822 44.4051 3.56822C45.2818 3.56822 46.0887 3.86718 46.7398 4.3687V3.89816C46.7398 3.78049 46.8346 3.68567 46.9523 3.68567H48.5677C48.6853 3.68567 48.7802 3.78049 48.7802 3.89816ZM46.7925 3.89816C46.7925 3.80959 46.8637 3.73836 46.9523 3.73836H48.5677C48.6562 3.73836 48.7275 3.80959 48.7275 3.89816V11.2337C48.7275 11.3223 48.6562 11.3935 48.5677 11.3935H46.9523C46.8637 11.3935 46.7925 11.3223 46.7925 11.2337V10.6542C46.775 10.6684 46.7575 10.6825 46.7398 10.6964C46.0919 11.2063 45.2841 11.511 44.4051 11.511C42.2833 11.511 40.5621 9.74544 40.5621 7.56595C40.5621 5.38645 42.2833 3.62091 44.4051 3.62091C45.2841 3.62091 46.0919 3.92559 46.7398 4.43548C46.7575 4.4494 46.775 4.46347 46.7925 4.47769V3.89816ZM42.4746 7.56787C42.4746 8.77406 43.4303 9.75051 44.6072 9.75051C45.7842 9.75051 46.7398 8.77406 46.7398 7.56787C46.7398 6.36168 45.7842 5.38524 44.6072 5.38524C43.4303 5.38524 42.4746 6.36168 42.4746 7.56787ZM1.33125 2.87202C1.95699 2.87202 2.46528 2.36373 2.46528 1.73799C2.46528 1.11225 1.95699 0.603961 1.33125 0.603961C0.705514 0.603961 0.197223 1.11225 0.197223 1.73799C0.197223 2.36373 0.705514 2.87202 1.33125 2.87202ZM78.8993 1.55354H77.2839C77.1953 1.55354 77.1241 1.62478 77.1241 1.71335V11.2765C77.1241 11.3651 77.1953 11.4363 77.2839 11.4363H78.8993C78.9878 11.4363 79.0591 11.3651 79.0591 11.2765V1.71335C79.0591 1.62478 78.9878 1.55354 78.8993 1.55354ZM84.2538 3.47583C82.0107 3.47583 80.1932 5.32802 80.1932 7.6134C80.1932 9.89879 82.0107 11.751 84.2538 11.751C86.4968 11.751 88.3143 9.89879 88.3143 7.6134C88.3143 5.32802 86.4968 3.47583 84.2538 3.47583ZM84.2538 9.82948C83.0581 9.82948 82.0897 8.83792 82.0897 7.61533C82.0897 6.39273 83.0581 5.40118 84.2538 5.40118C85.4494 5.40118 86.4179 6.39273 86.4179 7.61533C86.4179 8.83792 85.4494 9.82948 84.2538 9.82948ZM108.172 1.55354H109.788C109.876 1.55354 109.947 1.62478 109.947 1.71335V11.2765C109.947 11.3651 109.876 11.4363 109.788 11.4363H108.172C108.084 11.4363 108.012 11.3651 108.012 11.2765V1.71335C108.012 1.62478 108.084 1.55354 108.172 1.55354ZM95.7595 7.56062C95.7595 8.79477 94.7815 9.79595 93.5743 9.79595C92.3671 9.79595 91.389 8.79477 91.389 7.56062C91.389 6.32648 92.3671 5.32529 93.5743 5.32529C94.7815 5.32529 95.7595 6.32648 95.7595 7.56062ZM100.097 7.56787C100.097 8.80202 101.075 9.8032 102.283 9.8032C103.49 9.8032 104.468 8.80202 104.468 7.56787C104.468 6.33372 103.49 5.33254 102.283 5.33254C101.075 5.33254 100.097 6.33372 100.097 7.56787ZM33.6925 7.56787C33.6925 8.80202 34.6706 9.8032 35.8778 9.8032C37.0849 9.8032 38.063 8.80202 38.063 7.56787C38.063 6.33373 37.0849 5.33255 35.8778 5.33255C34.6706 5.33255 33.6925 6.33373 33.6925 7.56787ZM0.509157 3.73859H2.12452C2.21309 3.73859 2.28433 3.80983 2.28433 3.8984V11.234C2.28433 11.3225 2.21309 11.3938 2.12452 11.3938H0.509157C0.420591 11.3938 0.349353 11.3225 0.349353 11.234V3.8984C0.349353 3.80983 0.420591 3.73859 0.509157 3.73859ZM42.422 7.56787C42.422 8.80202 43.4 9.8032 44.6072 9.8032C45.8144 9.8032 46.7925 8.80202 46.7925 7.56787C46.7925 6.33372 45.8144 5.33254 44.6072 5.33254C43.4 5.33254 42.422 6.33372 42.422 7.56787Z" fill="#949496"/>
</svg>
