<svg width="30" height="12" viewBox="0 0 30 12" fill="none" xmlns="http://www.w3.org/2000/svg">
<path d="M7.32671 6.08787L5.15761 1.87619C4.5607 0.76519 3.33451 0.223831 2.10832 0.53087C0.882125 0.837909 0.0585938 1.89033 0.0585938 3.1508V10.5197C0.0585938 10.6127 0.13346 10.6874 0.226537 10.6874H2.27221C2.36529 10.6874 2.44016 10.6127 2.44016 10.5197V3.1811C2.44016 3.11848 2.44016 2.89628 2.68904 2.83366C2.9359 2.77104 3.05123 2.9791 3.07956 3.03364L7.11426 10.5096C7.17294 10.6187 7.28625 10.6854 7.40967 10.6854H9.52819C9.62127 10.6854 9.69614 10.6106 9.69614 10.5177V0.740948C9.69614 0.648028 9.62127 0.573291 9.52819 0.573291H7.49466C7.40158 0.573291 7.32671 0.648028 7.32671 0.740948V6.08585V6.08787Z" fill="#949496"/>
<path d="M16.1461 0.129395C13.1083 0.129395 10.6367 2.59681 10.6367 5.6294C10.6367 8.66198 13.1083 11.1294 16.1461 11.1294C19.1838 11.1294 21.6554 8.66198 21.6554 5.6294C21.6554 2.59681 19.1838 0.129395 16.1461 0.129395ZM16.1461 8.79194C14.4004 8.79194 12.9781 7.37411 12.9781 5.6294C12.9781 3.88468 14.3984 2.46685 16.1461 2.46685C17.8937 2.46685 19.314 3.88468 19.314 5.6294C19.314 7.37411 17.8937 8.79194 16.1461 8.79194Z" fill="#949496"/>
<path d="M26.2805 8.27297C25.5824 8.27297 25.0159 7.70737 25.0159 7.01048V0.740411C25.0159 0.647491 24.941 0.572754 24.8479 0.572754H22.7597C22.6667 0.572754 22.5918 0.647491 22.5918 0.740411V7.1438C22.5918 9.10117 24.1802 10.6869 26.1409 10.6869H29.6576C29.7507 10.6869 29.8255 10.6121 29.8255 10.5192V8.44063C29.8255 8.34771 29.7507 8.27297 29.6576 8.27297H26.2805Z" fill="#949496"/>
</svg>
