<svg width="53" height="12" viewBox="0 0 53 12" fill="none" xmlns="http://www.w3.org/2000/svg">
<path fill-rule="evenodd" clip-rule="evenodd" d="M21.4668 11.071V0.187602C21.4668 0.15547 21.4935 0.129395 21.5265 0.129395H23.8593C23.8923 0.129395 23.9191 0.15547 23.9191 0.187602V11.071C23.9191 11.1031 23.8923 11.1292 23.8593 11.1292H21.5265C21.4935 11.1292 21.4668 11.1031 21.4668 11.071Z" fill="#949496"/>
<path fill-rule="evenodd" clip-rule="evenodd" d="M9.07842 0.129395H6.20745H6.17749H3.78497H3.75512H0.884039C0.851017 0.129395 0.824219 0.15547 0.824219 0.187499V2.28286C0.824219 2.31499 0.851017 2.34097 0.884039 2.34097H3.72515C3.74172 2.34097 3.75512 2.354 3.75512 2.37012V11.071C3.75512 11.1032 3.78191 11.1292 3.81483 11.1292H6.14763C6.18065 11.1292 6.20745 11.1032 6.20745 11.071V2.37012C6.20745 2.354 6.22085 2.34097 6.23731 2.34097H9.07842C9.11144 2.34097 9.13824 2.31499 9.13824 2.28286V0.187499C9.13824 0.15547 9.11144 0.129395 9.07842 0.129395Z" fill="#949496"/>
<path fill-rule="evenodd" clip-rule="evenodd" d="M38.6874 8.88853V0.187602C38.6874 0.15547 38.6606 0.129395 38.6277 0.129395H36.3547C36.3217 0.129395 36.2949 0.15547 36.2949 0.187602V8.91758V9.38314C36.2949 10.3475 37.0982 11.1292 38.0893 11.1292H38.6874H43.3529C43.3859 11.1292 43.4126 11.1031 43.4126 11.071V8.97579C43.4126 8.94366 43.3859 8.91758 43.3529 8.91758H38.7173C38.7008 8.91758 38.6874 8.90454 38.6874 8.88853Z" fill="#949496"/>
<path fill-rule="evenodd" clip-rule="evenodd" d="M47.2988 8.88853V6.73978C47.2988 6.72377 47.3122 6.71073 47.3287 6.71073H51.5425C51.5756 6.71073 51.6023 6.68466 51.6023 6.65252V4.55736C51.6023 4.52513 51.5756 4.49916 51.5425 4.49916H47.3287C47.3122 4.49916 47.2988 4.48612 47.2988 4.47V2.37012C47.2988 2.354 47.3122 2.34097 47.3287 2.34097H51.9321C51.9651 2.34097 51.9918 2.31489 51.9918 2.28276V0.187602C51.9918 0.15547 51.9651 0.129395 51.9321 0.129395H47.2988H44.9661C44.933 0.129395 44.9062 0.15547 44.9062 0.187602V2.34097V4.49916V6.71073V8.91758V9.38314C44.9062 10.3475 45.7096 11.1292 46.7007 11.1292H47.2988H52.0838C52.1169 11.1292 52.1436 11.1031 52.1436 11.071V8.97579C52.1436 8.94366 52.1169 8.91758 52.0838 8.91758H47.3287C47.3122 8.91758 47.2988 8.90454 47.2988 8.88853Z" fill="#949496"/>
<path fill-rule="evenodd" clip-rule="evenodd" d="M16.1965 4.00735C16.1965 4.60206 15.7012 5.08405 15.09 5.08405H13.5588C13.5423 5.08405 13.529 5.07101 13.529 5.05499V2.3692C13.529 2.35319 13.5423 2.34015 13.5588 2.34015H15.09C15.7012 2.34015 16.1965 2.82214 16.1965 3.41685V4.00735ZM19.4651 11.0455L17.2786 6.71124C17.2724 6.69882 17.2762 6.68393 17.2876 6.67562C18.079 6.10288 18.5919 5.18633 18.5919 4.15285V3.27223C18.5919 1.53645 17.1459 0.129395 15.362 0.129395H13.5293H11.1965C11.1635 0.129395 11.1367 0.15547 11.1367 0.1875V7.29568V11.0712C11.1367 11.1032 11.1635 11.1293 11.1965 11.1293H13.4695C13.5025 11.1293 13.5293 11.1032 13.5293 11.0712V7.32494C13.5293 7.30872 13.5427 7.29568 13.5592 7.29568H14.9479C14.9718 7.29568 14.9934 7.30954 15.0029 7.33079L16.6728 11.0768C16.6871 11.1087 16.7194 11.1293 16.7552 11.1293H19.4114C19.4557 11.1293 19.4845 11.0841 19.4651 11.0455Z" fill="#949496"/>
<path fill-rule="evenodd" clip-rule="evenodd" d="M31.6926 4.21295C31.6926 4.80755 31.1972 5.28964 30.5861 5.28964H29.0548C29.0384 5.28964 29.025 5.2766 29.025 5.26048V2.36869C29.025 2.35268 29.0384 2.33964 29.0548 2.33964H30.5861C31.1972 2.33964 31.6926 2.82162 31.6926 3.41632V4.21295ZM30.8574 0.129395H29.0253H26.6926C26.6596 0.129395 26.6328 0.15547 26.6328 0.187499V7.5013V11.071C26.6328 11.1031 26.6596 11.1292 26.6926 11.1292H28.9655C28.9985 11.1292 29.0253 11.1031 29.0253 11.071V7.53036C29.0253 7.51434 29.0387 7.5013 29.0552 7.5013H30.8574C32.6412 7.5013 34.0873 6.09416 34.0873 4.35852V3.27218C34.0873 1.53643 32.6412 0.129395 30.8574 0.129395Z" fill="#949496"/>
</svg>
