<svg width="16" height="16" viewBox="0 0 16 16" fill="none" xmlns="http://www.w3.org/2000/svg">
<path d="M13.2777 0.115604C13.3173 0.0389079 13.3927 0.000370476 13.4683 0C13.5438 0.000370476 13.6192 0.0389079 13.6588 0.115604C13.7109 0.216752 13.7602 0.320186 13.8102 0.425015C14.1407 1.11796 14.5001 1.8716 15.8958 2.42649C15.9682 2.45525 16.0021 2.5234 15.9999 2.59218C16.0021 2.66097 15.9682 2.72911 15.8958 2.75788C14.5001 3.31276 14.1407 4.06641 13.8102 4.75935C13.7602 4.86418 13.7109 4.96762 13.6588 5.06876C13.6192 5.14546 13.5438 5.184 13.4682 5.18437C13.3927 5.184 13.3173 5.14546 13.2777 5.06876C13.2256 4.96762 13.1763 4.86418 13.1263 4.75935C12.7958 4.06641 12.4364 3.31276 11.0407 2.75788C10.9684 2.72911 10.9344 2.66097 10.9366 2.59218C10.9344 2.5234 10.9684 2.45525 11.0407 2.42649C12.4364 1.8716 12.7958 1.11796 13.1263 0.425015C13.1763 0.320186 13.2256 0.216752 13.2777 0.115604Z" fill="#1C1C1E"/>
<path d="M5.50253 9.35421L2.84975 2.77513C2.80131 2.655 2.67657 2.57526 2.53708 2.57526H0.333721C0.100926 2.57526 -0.0602092 2.78879 0.0215307 2.98896L4.30256 13.4728C4.31157 13.4949 4.32315 13.5156 4.33693 13.5346L4.60523 14.1553C4.74918 14.4883 5.21945 14.4793 5.35081 14.141L5.60756 13.4798C5.60974 13.4748 5.61179 13.4698 5.6137 13.4647L6.00619 12.5231C6.01787 12.5289 6.04113 12.4887 6.101 12.3318L7.88279 8.02462L10.1075 13.4728C10.115 13.491 10.1242 13.5083 10.1349 13.5245L10.4076 14.1553C10.5515 14.4883 11.0218 14.4793 11.1532 14.141L11.4004 13.5043C11.4074 13.4916 11.4135 13.4784 11.4187 13.4647L12.2441 11.4845L11.3075 9.35421L8.65472 2.77513C8.60629 2.655 8.48154 2.57526 8.34205 2.57526H6.13869C5.9059 2.57526 5.74477 2.78879 5.8265 2.98896L7.22622 6.41675L5.76717 9.95612L5.50253 9.35421Z" fill="#1C1C1E"/>
</svg>
